<mxfile host="app.diagrams.net" modified="2023-04-17T17:12:46.970Z" agent="Mozilla/5.0 (Windows NT 10.0; Win64; x64) AppleWebKit/537.36 (KHTML, like Gecko) Chrome/112.0.0.0 Safari/537.36" etag="sUoSgl15G-ja0A6R1kqO" version="21.1.8" type="github">
  <diagram name="Página-1" id="oP5gNMOhr1aonqqcT_qb">
    <mxGraphModel dx="2440" dy="976" grid="1" gridSize="10" guides="1" tooltips="1" connect="1" arrows="1" fold="1" page="1" pageScale="1" pageWidth="827" pageHeight="1169" math="0" shadow="0">
      <root>
        <mxCell id="0" />
        <mxCell id="1" parent="0" />
        <mxCell id="_VMwzKoSRZhQu_stjUHT-20" style="edgeStyle=orthogonalEdgeStyle;rounded=0;orthogonalLoop=1;jettySize=auto;html=1;" edge="1" parent="1" source="_VMwzKoSRZhQu_stjUHT-1" target="_VMwzKoSRZhQu_stjUHT-6">
          <mxGeometry relative="1" as="geometry">
            <mxPoint x="832.0999999999999" y="1000" as="targetPoint" />
            <Array as="points">
              <mxPoint x="836" y="1020" />
              <mxPoint x="836" y="1020" />
            </Array>
          </mxGeometry>
        </mxCell>
        <mxCell id="_VMwzKoSRZhQu_stjUHT-1" value="" style="dashed=0;outlineConnect=0;html=1;align=center;labelPosition=center;verticalLabelPosition=bottom;verticalAlign=top;shape=mxgraph.weblogos.sms;fillColor=#48B921;strokeColor=none" vertex="1" parent="1">
          <mxGeometry x="797.5" y="1066.25" width="69.2" height="64" as="geometry" />
        </mxCell>
        <mxCell id="_VMwzKoSRZhQu_stjUHT-9" style="edgeStyle=orthogonalEdgeStyle;rounded=0;orthogonalLoop=1;jettySize=auto;html=1;" edge="1" parent="1" source="_VMwzKoSRZhQu_stjUHT-2" target="_VMwzKoSRZhQu_stjUHT-1">
          <mxGeometry relative="1" as="geometry" />
        </mxCell>
        <mxCell id="_VMwzKoSRZhQu_stjUHT-2" value="AWS - SNS" style="outlineConnect=0;dashed=0;verticalLabelPosition=middle;verticalAlign=middle;align=right;html=1;shape=mxgraph.aws3.sns;fillColor=#D9A741;gradientColor=none;labelPosition=left;" vertex="1" parent="1">
          <mxGeometry x="651" y="1060" width="76.5" height="76.5" as="geometry" />
        </mxCell>
        <mxCell id="_VMwzKoSRZhQu_stjUHT-28" style="edgeStyle=orthogonalEdgeStyle;rounded=0;orthogonalLoop=1;jettySize=auto;html=1;entryX=0.5;entryY=0;entryDx=0;entryDy=0;" edge="1" parent="1" source="_VMwzKoSRZhQu_stjUHT-3" target="_VMwzKoSRZhQu_stjUHT-26">
          <mxGeometry relative="1" as="geometry" />
        </mxCell>
        <mxCell id="_VMwzKoSRZhQu_stjUHT-3" value="API - GENACADEMIA" style="outlineConnect=0;dashed=0;verticalLabelPosition=top;verticalAlign=bottom;align=center;shape=mxgraph.aws3.android;fillColor=#8CC64F;gradientColor=none;labelBackgroundColor=none;labelBorderColor=none;html=1;labelPosition=center;" vertex="1" parent="1">
          <mxGeometry x="216" y="640" width="73.5" height="84" as="geometry" />
        </mxCell>
        <mxCell id="_VMwzKoSRZhQu_stjUHT-11" style="edgeStyle=orthogonalEdgeStyle;rounded=0;orthogonalLoop=1;jettySize=auto;html=1;entryX=1;entryY=0.5;entryDx=0;entryDy=0;entryPerimeter=0;" edge="1" parent="1" source="_VMwzKoSRZhQu_stjUHT-6" target="_VMwzKoSRZhQu_stjUHT-3">
          <mxGeometry relative="1" as="geometry">
            <Array as="points">
              <mxPoint x="836" y="682" />
            </Array>
          </mxGeometry>
        </mxCell>
        <mxCell id="_VMwzKoSRZhQu_stjUHT-12" value="API /login" style="edgeLabel;html=1;align=center;verticalAlign=middle;resizable=0;points=[];" vertex="1" connectable="0" parent="_VMwzKoSRZhQu_stjUHT-11">
          <mxGeometry x="0.3761" y="-2" relative="1" as="geometry">
            <mxPoint x="1" as="offset" />
          </mxGeometry>
        </mxCell>
        <mxCell id="_VMwzKoSRZhQu_stjUHT-27" value="{&quot;phone&quot;: &quot;11999991111&quot;}" style="edgeLabel;html=1;align=center;verticalAlign=middle;resizable=0;points=[];" vertex="1" connectable="0" parent="_VMwzKoSRZhQu_stjUHT-11">
          <mxGeometry x="0.021" relative="1" as="geometry">
            <mxPoint x="51" as="offset" />
          </mxGeometry>
        </mxCell>
        <mxCell id="_VMwzKoSRZhQu_stjUHT-6" value="ALUNO" style="shape=umlActor;verticalLabelPosition=middle;verticalAlign=middle;html=1;outlineConnect=0;labelPosition=left;align=right;" vertex="1" parent="1">
          <mxGeometry x="821" y="810" width="30" height="60" as="geometry" />
        </mxCell>
        <mxCell id="_VMwzKoSRZhQu_stjUHT-13" value="&lt;font style=&quot;font-size: 18px;&quot;&gt;&lt;b&gt;2Factor authentication&lt;/b&gt;&lt;/font&gt;" style="text;html=1;align=center;verticalAlign=middle;resizable=0;points=[];autosize=1;strokeColor=none;fillColor=none;" vertex="1" parent="1">
          <mxGeometry x="140" y="60" width="220" height="40" as="geometry" />
        </mxCell>
        <mxCell id="_VMwzKoSRZhQu_stjUHT-25" value="" style="edgeStyle=orthogonalEdgeStyle;rounded=0;orthogonalLoop=1;jettySize=auto;html=1;" edge="1" parent="1" source="_VMwzKoSRZhQu_stjUHT-22" target="_VMwzKoSRZhQu_stjUHT-24">
          <mxGeometry relative="1" as="geometry">
            <Array as="points">
              <mxPoint x="257" y="990" />
              <mxPoint x="257" y="990" />
            </Array>
          </mxGeometry>
        </mxCell>
        <mxCell id="_VMwzKoSRZhQu_stjUHT-22" value="mongo" style="sketch=0;points=[[0,0,0],[0.25,0,0],[0.5,0,0],[0.75,0,0],[1,0,0],[0,1,0],[0.25,1,0],[0.5,1,0],[0.75,1,0],[1,1,0],[0,0.25,0],[0,0.5,0],[0,0.75,0],[1,0.25,0],[1,0.5,0],[1,0.75,0]];outlineConnect=0;fontColor=#232F3E;gradientColor=#4D72F3;gradientDirection=north;fillColor=#3334B9;strokeColor=#ffffff;dashed=0;verticalLabelPosition=middle;verticalAlign=middle;align=right;html=1;fontSize=12;fontStyle=0;aspect=fixed;shape=mxgraph.aws4.resourceIcon;resIcon=mxgraph.aws4.documentdb_with_mongodb_compatibility;labelPosition=left;" vertex="1" parent="1">
          <mxGeometry x="227" y="908" width="58" height="58" as="geometry" />
        </mxCell>
        <mxCell id="_VMwzKoSRZhQu_stjUHT-31" value="" style="edgeStyle=orthogonalEdgeStyle;rounded=0;orthogonalLoop=1;jettySize=auto;html=1;" edge="1" parent="1" source="_VMwzKoSRZhQu_stjUHT-24" target="_VMwzKoSRZhQu_stjUHT-30">
          <mxGeometry relative="1" as="geometry" />
        </mxCell>
        <mxCell id="_VMwzKoSRZhQu_stjUHT-32" value="SIM" style="edgeLabel;html=1;align=center;verticalAlign=middle;resizable=0;points=[];" vertex="1" connectable="0" parent="_VMwzKoSRZhQu_stjUHT-31">
          <mxGeometry x="-0.8352" y="-2" relative="1" as="geometry">
            <mxPoint as="offset" />
          </mxGeometry>
        </mxCell>
        <mxCell id="_VMwzKoSRZhQu_stjUHT-39" style="edgeStyle=orthogonalEdgeStyle;rounded=0;orthogonalLoop=1;jettySize=auto;html=1;" edge="1" parent="1" source="_VMwzKoSRZhQu_stjUHT-24" target="_VMwzKoSRZhQu_stjUHT-37">
          <mxGeometry relative="1" as="geometry">
            <Array as="points">
              <mxPoint x="401" y="1130" />
            </Array>
          </mxGeometry>
        </mxCell>
        <mxCell id="_VMwzKoSRZhQu_stjUHT-40" value="NÃO" style="edgeLabel;html=1;align=center;verticalAlign=middle;resizable=0;points=[];" vertex="1" connectable="0" parent="_VMwzKoSRZhQu_stjUHT-39">
          <mxGeometry x="-0.7105" y="1" relative="1" as="geometry">
            <mxPoint as="offset" />
          </mxGeometry>
        </mxCell>
        <mxCell id="_VMwzKoSRZhQu_stjUHT-41" style="edgeStyle=orthogonalEdgeStyle;rounded=0;orthogonalLoop=1;jettySize=auto;html=1;" edge="1" parent="1" source="_VMwzKoSRZhQu_stjUHT-24" target="_VMwzKoSRZhQu_stjUHT-2">
          <mxGeometry relative="1" as="geometry">
            <Array as="points">
              <mxPoint x="257" y="1200" />
              <mxPoint x="689" y="1200" />
            </Array>
          </mxGeometry>
        </mxCell>
        <mxCell id="_VMwzKoSRZhQu_stjUHT-24" value="&lt;span style=&quot;font-size: 13px;&quot;&gt;Phone exists?&lt;br&gt;Phone count &amp;lt; 3?&lt;br&gt;&lt;/span&gt;" style="rhombus;whiteSpace=wrap;html=1;align=center;sketch=0;gradientDirection=north;dashed=0;fontStyle=0;" vertex="1" parent="1">
          <mxGeometry x="188.5" y="1060" width="137.5" height="139.25" as="geometry" />
        </mxCell>
        <mxCell id="_VMwzKoSRZhQu_stjUHT-29" style="edgeStyle=orthogonalEdgeStyle;rounded=0;orthogonalLoop=1;jettySize=auto;html=1;" edge="1" parent="1" source="_VMwzKoSRZhQu_stjUHT-26" target="_VMwzKoSRZhQu_stjUHT-22">
          <mxGeometry relative="1" as="geometry">
            <Array as="points">
              <mxPoint x="256" y="870" />
              <mxPoint x="256" y="870" />
            </Array>
          </mxGeometry>
        </mxCell>
        <mxCell id="_VMwzKoSRZhQu_stjUHT-26" value="busca no banco de alunos o telefone" style="rounded=0;whiteSpace=wrap;html=1;" vertex="1" parent="1">
          <mxGeometry x="192.75" y="790" width="120" height="60" as="geometry" />
        </mxCell>
        <mxCell id="_VMwzKoSRZhQu_stjUHT-30" value="Conta mais um" style="image;html=1;image=img/lib/clip_art/computers/Database_Add_128x128.png" vertex="1" parent="1">
          <mxGeometry x="227.25" y="1300" width="60" height="70" as="geometry" />
        </mxCell>
        <mxCell id="_VMwzKoSRZhQu_stjUHT-38" style="edgeStyle=orthogonalEdgeStyle;rounded=0;orthogonalLoop=1;jettySize=auto;html=1;" edge="1" parent="1" source="_VMwzKoSRZhQu_stjUHT-37" target="_VMwzKoSRZhQu_stjUHT-6">
          <mxGeometry relative="1" as="geometry">
            <mxPoint x="821" y="820" as="targetPoint" />
            <Array as="points">
              <mxPoint x="406" y="820" />
            </Array>
          </mxGeometry>
        </mxCell>
        <mxCell id="_VMwzKoSRZhQu_stjUHT-37" value="401&lt;br&gt;" style="shape=image;html=1;verticalAlign=middle;verticalLabelPosition=middle;labelBackgroundColor=#ffffff;imageAspect=0;aspect=fixed;image=https://cdn0.iconfinder.com/data/icons/google-material-design-3-0/48/ic_http_48px-128.png;labelPosition=left;align=right;horizontal=1;" vertex="1" parent="1">
          <mxGeometry x="361" y="1020" width="90" height="90" as="geometry" />
        </mxCell>
        <mxCell id="_VMwzKoSRZhQu_stjUHT-68" style="edgeStyle=orthogonalEdgeStyle;rounded=0;orthogonalLoop=1;jettySize=auto;html=1;entryX=0;entryY=0.5;entryDx=0;entryDy=0;entryPerimeter=0;" edge="1" parent="1" source="_VMwzKoSRZhQu_stjUHT-66" target="_VMwzKoSRZhQu_stjUHT-67">
          <mxGeometry relative="1" as="geometry" />
        </mxCell>
        <mxCell id="_VMwzKoSRZhQu_stjUHT-66" value="ALUNO" style="shape=umlActor;verticalLabelPosition=middle;verticalAlign=middle;html=1;outlineConnect=0;labelPosition=left;align=right;" vertex="1" parent="1">
          <mxGeometry x="158.5" y="160" width="30" height="60" as="geometry" />
        </mxCell>
        <mxCell id="_VMwzKoSRZhQu_stjUHT-73" style="edgeStyle=orthogonalEdgeStyle;rounded=0;orthogonalLoop=1;jettySize=auto;html=1;entryX=0;entryY=0.5;entryDx=0;entryDy=0;" edge="1" parent="1" source="_VMwzKoSRZhQu_stjUHT-67" target="_VMwzKoSRZhQu_stjUHT-72">
          <mxGeometry relative="1" as="geometry" />
        </mxCell>
        <mxCell id="_VMwzKoSRZhQu_stjUHT-67" value="API - GENACADEMIA" style="outlineConnect=0;dashed=0;verticalLabelPosition=top;verticalAlign=bottom;align=center;shape=mxgraph.aws3.android;fillColor=#8CC64F;gradientColor=none;labelBackgroundColor=none;labelBorderColor=none;html=1;labelPosition=center;" vertex="1" parent="1">
          <mxGeometry x="310" y="148" width="73.5" height="84" as="geometry" />
        </mxCell>
        <mxCell id="_VMwzKoSRZhQu_stjUHT-81" style="edgeStyle=orthogonalEdgeStyle;rounded=0;orthogonalLoop=1;jettySize=auto;html=1;" edge="1" parent="1" source="_VMwzKoSRZhQu_stjUHT-69" target="_VMwzKoSRZhQu_stjUHT-80">
          <mxGeometry relative="1" as="geometry" />
        </mxCell>
        <mxCell id="_VMwzKoSRZhQu_stjUHT-69" value="AWS - SNS&lt;br&gt;cod: 12345" style="outlineConnect=0;dashed=0;verticalLabelPosition=top;verticalAlign=bottom;align=center;html=1;shape=mxgraph.aws3.sns;fillColor=#D9A741;gradientColor=none;labelPosition=center;" vertex="1" parent="1">
          <mxGeometry x="1010" y="155.5" width="76.5" height="76.5" as="geometry" />
        </mxCell>
        <mxCell id="_VMwzKoSRZhQu_stjUHT-75" style="edgeStyle=orthogonalEdgeStyle;rounded=0;orthogonalLoop=1;jettySize=auto;html=1;entryX=0;entryY=0.5;entryDx=0;entryDy=0;" edge="1" parent="1" source="_VMwzKoSRZhQu_stjUHT-72" target="_VMwzKoSRZhQu_stjUHT-74">
          <mxGeometry relative="1" as="geometry" />
        </mxCell>
        <mxCell id="_VMwzKoSRZhQu_stjUHT-72" value="busca no banco de alunos o telefone" style="rounded=0;whiteSpace=wrap;html=1;" vertex="1" parent="1">
          <mxGeometry x="470" y="160" width="120" height="60" as="geometry" />
        </mxCell>
        <mxCell id="_VMwzKoSRZhQu_stjUHT-78" value="SIM" style="edgeStyle=orthogonalEdgeStyle;rounded=0;orthogonalLoop=1;jettySize=auto;html=1;" edge="1" parent="1" source="_VMwzKoSRZhQu_stjUHT-74" target="_VMwzKoSRZhQu_stjUHT-69">
          <mxGeometry x="-0.6869" y="10" relative="1" as="geometry">
            <mxPoint x="917.5" y="190.0050000000001" as="targetPoint" />
            <Array as="points">
              <mxPoint x="974" y="190" />
              <mxPoint x="974" y="189" />
            </Array>
            <mxPoint as="offset" />
          </mxGeometry>
        </mxCell>
        <mxCell id="_VMwzKoSRZhQu_stjUHT-79" value="ENVIA PARA AWS-SNS COM O TELEFONE O CÓDIGO DE VERIFICAÇÃO" style="edgeLabel;html=1;align=center;verticalAlign=middle;resizable=0;points=[];labelBorderColor=default;spacingTop=0;" vertex="1" connectable="0" parent="_VMwzKoSRZhQu_stjUHT-78">
          <mxGeometry x="-0.3283" y="6" relative="1" as="geometry">
            <mxPoint x="91" y="48" as="offset" />
          </mxGeometry>
        </mxCell>
        <mxCell id="_VMwzKoSRZhQu_stjUHT-74" value="&lt;span style=&quot;font-size: 13px;&quot;&gt;Phone exists?&lt;br&gt;Phone *count &amp;lt; 3?&lt;br&gt;&lt;/span&gt;" style="rhombus;whiteSpace=wrap;html=1;align=center;sketch=0;gradientDirection=north;dashed=0;fontStyle=0;" vertex="1" parent="1">
          <mxGeometry x="700" y="120.38" width="137.5" height="139.25" as="geometry" />
        </mxCell>
        <mxCell id="_VMwzKoSRZhQu_stjUHT-76" value="*COUNT: contagem de tentativas para o mesmo telefone num período X" style="text;html=1;align=center;verticalAlign=middle;resizable=0;points=[];autosize=1;strokeColor=none;fillColor=none;" vertex="1" parent="1">
          <mxGeometry x="588.6" y="90.38" width="410" height="30" as="geometry" />
        </mxCell>
        <mxCell id="_VMwzKoSRZhQu_stjUHT-88" style="edgeStyle=orthogonalEdgeStyle;rounded=0;orthogonalLoop=1;jettySize=auto;html=1;entryX=-1.333;entryY=0.563;entryDx=0;entryDy=0;entryPerimeter=0;" edge="1" parent="1" source="_VMwzKoSRZhQu_stjUHT-80" target="_VMwzKoSRZhQu_stjUHT-82">
          <mxGeometry relative="1" as="geometry" />
        </mxCell>
        <mxCell id="_VMwzKoSRZhQu_stjUHT-89" value="USUÁRIO RECEBE O COD 12345 POR SMS" style="edgeLabel;html=1;align=center;verticalAlign=middle;resizable=0;points=[];" vertex="1" connectable="0" parent="_VMwzKoSRZhQu_stjUHT-88">
          <mxGeometry x="0.2188" relative="1" as="geometry">
            <mxPoint x="-20" y="-24" as="offset" />
          </mxGeometry>
        </mxCell>
        <mxCell id="_VMwzKoSRZhQu_stjUHT-80" value="" style="dashed=0;outlineConnect=0;html=1;align=center;labelPosition=center;verticalLabelPosition=bottom;verticalAlign=top;shape=mxgraph.weblogos.sms;fillColor=#48B921;strokeColor=none" vertex="1" parent="1">
          <mxGeometry x="1200" y="161.75" width="69.2" height="64" as="geometry" />
        </mxCell>
        <mxCell id="_VMwzKoSRZhQu_stjUHT-90" style="edgeStyle=orthogonalEdgeStyle;rounded=0;orthogonalLoop=1;jettySize=auto;html=1;" edge="1" parent="1" source="_VMwzKoSRZhQu_stjUHT-82" target="_VMwzKoSRZhQu_stjUHT-86">
          <mxGeometry relative="1" as="geometry">
            <Array as="points">
              <mxPoint x="1567" y="250" />
              <mxPoint x="1567" y="250" />
            </Array>
          </mxGeometry>
        </mxCell>
        <mxCell id="_VMwzKoSRZhQu_stjUHT-91" value="ALUNO ENVIA O CODE SOLICITADO NO FRONT 12345" style="edgeLabel;html=1;align=center;verticalAlign=middle;resizable=0;points=[];" vertex="1" connectable="0" parent="_VMwzKoSRZhQu_stjUHT-90">
          <mxGeometry x="-0.1054" y="-1" relative="1" as="geometry">
            <mxPoint x="-146" as="offset" />
          </mxGeometry>
        </mxCell>
        <mxCell id="_VMwzKoSRZhQu_stjUHT-82" value="ALUNO" style="shape=umlActor;verticalLabelPosition=middle;verticalAlign=middle;html=1;outlineConnect=0;labelPosition=left;align=right;" vertex="1" parent="1">
          <mxGeometry x="1540" y="160" width="30" height="60" as="geometry" />
        </mxCell>
        <mxCell id="_VMwzKoSRZhQu_stjUHT-93" style="edgeStyle=orthogonalEdgeStyle;rounded=0;orthogonalLoop=1;jettySize=auto;html=1;" edge="1" parent="1" source="_VMwzKoSRZhQu_stjUHT-86" target="_VMwzKoSRZhQu_stjUHT-92">
          <mxGeometry relative="1" as="geometry" />
        </mxCell>
        <mxCell id="_VMwzKoSRZhQu_stjUHT-94" value="A API RETORNA COM UM TOKEN DE API PAR AUSO NO APP" style="edgeLabel;html=1;align=center;verticalAlign=middle;resizable=0;points=[];" vertex="1" connectable="0" parent="_VMwzKoSRZhQu_stjUHT-93">
          <mxGeometry x="-0.2846" y="-1" relative="1" as="geometry">
            <mxPoint x="-166" as="offset" />
          </mxGeometry>
        </mxCell>
        <mxCell id="_VMwzKoSRZhQu_stjUHT-86" value="API - GENACADEMIA" style="outlineConnect=0;dashed=0;verticalLabelPosition=top;verticalAlign=bottom;align=center;shape=mxgraph.aws3.android;fillColor=#8CC64F;gradientColor=none;labelBackgroundColor=none;labelBorderColor=none;html=1;labelPosition=center;" vertex="1" parent="1">
          <mxGeometry x="1530" y="360" width="73.5" height="84" as="geometry" />
        </mxCell>
        <mxCell id="_VMwzKoSRZhQu_stjUHT-92" value="ALUNO" style="shape=umlActor;verticalLabelPosition=middle;verticalAlign=middle;html=1;outlineConnect=0;labelPosition=left;align=right;" vertex="1" parent="1">
          <mxGeometry x="1551.75" y="500" width="30" height="60" as="geometry" />
        </mxCell>
      </root>
    </mxGraphModel>
  </diagram>
</mxfile>
